<svg width="32" height="32" viewBox="0 0 32 32" fill="none" xmlns="http://www.w3.org/2000/svg">
<path d="M9.33334 23.9333L16 21.0667L22.6667 23.9333V6.66667H9.33334V23.9333ZM8.53334 27.2C8.08889 27.3778 7.66667 27.3387 7.26667 27.0827C6.86667 26.8276 6.66667 26.4556 6.66667 25.9667V6.66667C6.66667 5.93333 6.928 5.30533 7.45067 4.78267C7.97245 4.26089 8.6 4 9.33334 4H22.6667C23.4 4 24.028 4.26089 24.5507 4.78267C25.0724 5.30533 25.3333 5.93333 25.3333 6.66667V25.9667C25.3333 26.4556 25.1333 26.8276 24.7333 27.0827C24.3333 27.3387 23.9111 27.3778 23.4667 27.2L16 24L8.53334 27.2ZM9.33334 6.66667H22.6667H16H9.33334Z" fill="#585858"/>
</svg>
