<svg width="400" height="218" viewBox="0 0 400 218" fill="none" xmlns="http://www.w3.org/2000/svg">
<mask id="path-1-inside-1_0_26" fill="white">
<path d="M0 20C0 8.9543 8.95431 0 20 0H380C391.046 0 400 8.95431 400 20V218H0V20Z"/>
</mask>
<path d="M0 20C0 8.9543 8.95431 0 20 0H380C391.046 0 400 8.95431 400 20V218H0V20Z" fill="#F5F5F5"/>
<path d="M-2 20C-2 7.84974 7.84974 -2 20 -2H380C392.15 -2 402 7.84974 402 20H398C398 10.0589 389.941 2 380 2H20C10.0589 2 2 10.0589 2 20H-2ZM400 218H0H400ZM-2 218V20C-2 7.84974 7.84974 -2 20 -2V2C10.0589 2 2 10.0589 2 20V218H-2ZM380 -2C392.15 -2 402 7.84974 402 20V218H398V20C398 10.0589 389.941 2 380 2V-2Z" fill="#C9C9C9" mask="url(#path-1-inside-1_0_26)"/>
</svg>
